<svg width="96" height="96" viewBox="0 0 96 96" fill="none" xmlns="http://www.w3.org/2000/svg">
<circle cx="48" cy="48" r="48" fill="#008FD5"/>
<path d="M54.0399 78.4692V75.269C54.0399 74.469 54.6801 73.829 55.4804 73.829H60.09C61.4664 73.829 62.6188 72.7089 62.6188 71.3009V66.9167C62.6188 66.2126 63.003 65.6046 63.5791 65.2526L66.108 63.8445C66.6522 63.5245 66.9083 62.8525 66.7162 62.2765L63.6752 53.3161C63.6752 53.3161 62.2347 39.3955 46.9015 39.2355C31.5683 39.0755 30.4799 56.5482 32.4646 60.6444L34.3853 64.6766C34.3853 64.6766 34.4173 64.7726 34.4493 64.8046C34.7374 65.3806 37.2982 70.4048 37.4583 78.3092" stroke="white" stroke-width="2" stroke-miterlimit="10"/>
<path d="M79.4633 49.057C79.4633 49.057 79.4633 48.8598 79.4633 48.7612C79.4633 31.6331 65.4056 17.5625 48.2934 17.5625C31.1811 17.5625 17.1562 31.666 17.1562 48.7612C17.1562 61.9113 25.466 73.7135 37.8158 78.1188" stroke="white" stroke-width="2" stroke-miterlimit="10" stroke-linecap="round"/>
<path d="M20.0159 66.4824C22.7731 66.4824 25.0083 64.2451 25.0083 61.4853C25.0083 58.7255 22.7731 56.4883 20.0159 56.4883C17.2586 56.4883 15.0234 58.7255 15.0234 61.4853C15.0234 64.2451 17.2586 66.4824 20.0159 66.4824Z" fill="white" stroke="white" stroke-miterlimit="10"/>
<path d="M20.4456 39.5566C23.2028 39.5566 25.438 37.3193 25.438 34.5595C25.438 31.7998 23.2028 29.5625 20.4456 29.5625C17.6883 29.5625 15.4531 31.7998 15.4531 34.5595C15.4531 37.3193 17.6883 39.5566 20.4456 39.5566Z" fill="white" stroke="white" stroke-miterlimit="10"/>
<path d="M42.3206 23.3496C45.0778 23.3496 47.313 21.1123 47.313 18.3525C47.313 15.5927 45.0778 13.3555 42.3206 13.3555C39.5633 13.3555 37.3281 15.5927 37.3281 18.3525C37.3281 21.1123 39.5633 23.3496 42.3206 23.3496Z" fill="white" stroke="white" stroke-miterlimit="10"/>
<path d="M68.7581 30.1894C71.5153 30.1894 73.7505 27.9522 73.7505 25.1924C73.7505 22.4326 71.5153 20.1953 68.7581 20.1953C66.0008 20.1953 63.7656 22.4326 63.7656 25.1924C63.7656 27.9522 66.0008 30.1894 68.7581 30.1894Z" fill="white" stroke="white" stroke-miterlimit="10"/>
<path d="M79.6643 58.9316C82.4216 58.9316 84.6568 56.6943 84.6568 53.9345C84.6568 51.1748 82.4216 48.9375 79.6643 48.9375C76.9071 48.9375 74.6719 51.1748 74.6719 53.9345C74.6719 56.6943 76.9071 58.9316 79.6643 58.9316Z" fill="white" stroke="white" stroke-miterlimit="10"/>
<path d="M74.2393 53.918H69.3125" stroke="white" stroke-miterlimit="10" stroke-linecap="round"/>
<path d="M66.1006 29.4297L60.8125 36.9253" stroke="white" stroke-miterlimit="10" stroke-linecap="round"/>
<path d="M43.3359 23.3516L45.3723 33.8716" stroke="white" stroke-miterlimit="10" stroke-linecap="round"/>
<path d="M24.8438 36.9609L32.1353 41.5306" stroke="white" stroke-miterlimit="10" stroke-linecap="round"/>
<path d="M25.0469 60.2024L28.9226 59.3477" stroke="white" stroke-miterlimit="10" stroke-linecap="round"/>
</svg>
