<svg width="96" height="96" viewBox="0 0 96 96" fill="none" xmlns="http://www.w3.org/2000/svg">
<circle cx="48" cy="48" r="48" fill="#FBAB18"/>
<path d="M42.6719 48.5541L47.5062 41.8501L51.8003 44.9858L71.5157 20.0352" stroke="white" stroke-width="2" stroke-miterlimit="10" stroke-linecap="round"/>
<path d="M63.5547 80.2916C63.8248 68.1271 67.7138 60.3418 68.1729 59.4768C68.1999 59.4227 68.227 59.3416 68.254 59.2876L71.2248 53.0702C73.0613 49.2046 73.1693 37.6889 67.6328 29.3359" stroke="white" stroke-width="2" stroke-miterlimit="10"/>
<path d="M64.0397 25.17C60.5017 22.0343 55.6134 19.9798 48.9966 20.0609C25.3652 20.3312 23.1506 41.7948 23.1506 41.7948L18.4784 55.5812C18.1543 56.5003 18.5594 57.5275 19.4236 58.0141L23.3127 60.2037C24.2309 60.7173 24.8251 61.7175 24.8251 62.7717V69.5568C24.8251 71.6923 26.5536 73.4224 28.6871 73.4224H35.7901C37.0054 73.4224 38.0047 74.4226 38.0047 75.639V80.5589" stroke="white" stroke-width="2" stroke-miterlimit="10"/>
<path d="M58.7976 31.7689C56.0698 29.4171 52.5319 27.9844 48.6698 27.9844C40.0815 27.9844 33.1406 34.9587 33.1406 43.5279C33.1406 52.0971 40.1085 59.0714 48.6698 59.0714C57.2311 59.0714 64.199 52.0971 64.199 43.5279C64.199 40.8247 63.4968 38.2836 62.2815 36.067" stroke="white" stroke-width="2" stroke-miterlimit="10"/>
</svg>
