<svg width="96" height="96" viewBox="0 0 96 96" fill="none" xmlns="http://www.w3.org/2000/svg">
<circle cx="48" cy="48" r="48" fill="#EE1D3A"/>
<path d="M39.6577 78.0313V73.1114C39.6577 71.895 38.6584 70.8948 37.4431 70.8948H30.3402C28.2066 70.8948 26.4781 69.1647 26.4781 67.0292V60.2441C26.4781 59.1898 25.911 58.1896 24.9657 57.676L21.0767 55.4864C20.2124 54.9998 19.8343 53.9726 20.1314 53.0535L24.8037 39.2671C24.8037 39.2671 26.9913 17.8036 50.6496 17.5333C67.2051 17.344 72.9847 30.5087 73.9029 40.5917" stroke="white" stroke-width="2" stroke-miterlimit="10"/>
<path d="M66.2845 43.7539C60.478 41.8616 58.5334 40.0234 58.5334 40.0234C58.5334 40.0234 56.5889 41.8616 50.7823 43.7539C47.8656 44.7 43.0312 44.7 43.0312 44.7V60.3516C43.0312 64.839 45.1918 69.056 48.8378 71.7322L58.5334 78.8416L68.229 71.7322C71.902 69.056 74.0356 64.839 74.0356 60.3516V44.7C74.0356 44.7 69.2013 44.7 66.2845 43.7539Z" stroke="white" stroke-width="2" stroke-miterlimit="10"/>
<path d="M59.0781 72.8967L65.884 67.8957C68.2336 66.1657 69.665 63.4084 69.665 60.543V49.4598C68.2336 49.2706 66.7752 48.9732 65.4518 48.5678C62.7241 47.6757 60.6445 46.7836 59.0781 45.9727V72.8967Z" fill="white"/>
<path d="M56.763 69.2461L56.822 69.7426L57.263 69.6902V69.2461H56.763ZM49.25 64.9482L50.3636 70.6133L54.7129 66.8164L49.25 64.9482ZM56.263 48.418V69.2461H57.263V48.418H56.263ZM56.7041 68.7496C55.7108 68.8676 53.9916 68.7444 52.4496 67.8996L51.9691 68.7766C53.7288 69.7407 55.6658 69.88 56.822 69.7426L56.7041 68.7496Z" fill="white"/>
<circle cx="56.7633" cy="47.5836" r="1.66957" fill="white"/>
</svg>
