<svg width="40" height="40" viewBox="0 0 40 40" fill="none" xmlns="http://www.w3.org/2000/svg">
<circle cx="20" cy="20" r="20" fill="#865DBE"/>
<path d="M14.8047 29.2965C14.8047 29.306 14.8087 29.3151 14.8157 29.3214C15.8713 30.2756 17.2589 30.8522 18.7869 30.8522H27.0789C27.8531 30.8522 28.5527 30.2791 28.6197 29.4901C28.7016 28.5894 28.0094 27.8376 27.1385 27.8376H28.4039C29.178 27.8376 29.8777 27.2645 29.9447 26.4755C30.0265 25.5748 29.3343 24.823 28.4634 24.823H29.3641C30.1382 24.823 30.8379 24.2499 30.9049 23.4609C30.9867 22.5602 30.2945 21.8084 29.4236 21.8084H28.5974C29.3938 21.734 30.0117 21.0343 29.9447 20.1857C29.8777 19.3893 29.1705 18.8013 28.389 18.8013H25.5084H24.9799H24.6646C23.943 18.8013 23.4559 18.0591 23.7243 17.3893C23.9569 16.8086 24.2026 16.16 24.3472 15.675C24.6821 14.5511 24.9799 12.2064 24.0792 11.0154C23.1786 9.82446 21.9802 10.0105 21.9802 10.0105C21.9802 10.0105 20.5213 10.2041 21.02 12.0798C21.5187 13.9556 20.2384 15.608 20.2384 15.608C20.2384 15.608 18.6155 17.7651 16.3485 18.8694C15.4921 19.2866 14.8047 20.0896 14.8047 21.0422V29.2965Z" fill="white"/>
<path d="M9.65194 18.9766H12.6151C12.9253 18.9766 13.1733 19.2443 13.1733 19.5789V29.797C13.1733 30.1317 12.9253 30.3994 12.6151 30.3994H9.65194C9.34183 30.3994 9.09375 30.1317 9.09375 29.797V19.5789C9.09375 19.2443 9.34183 18.9766 9.65194 18.9766Z" fill="white"/>
</svg>
